<mxfile host="app.diagrams.net" agent="Mozilla/5.0 (Windows NT 10.0; Win64; x64) AppleWebKit/537.36 (KHTML, like Gecko) Chrome/131.0.0.0 Safari/537.36" version="25.0.1">
  <diagram name="Page-1" id="vyGXIA79MHlj44jtNxEa">
    <mxGraphModel dx="3134" dy="746" grid="1" gridSize="10" guides="1" tooltips="1" connect="1" arrows="1" fold="1" page="1" pageScale="1" pageWidth="850" pageHeight="1100" math="0" shadow="0">
      <root>
        <mxCell id="0" />
        <mxCell id="1" parent="0" />
        <mxCell id="NIufxUbHIXF32C0Od_Hi-1" value="PELICULA" style="rounded=0;whiteSpace=wrap;html=1;" parent="1" vertex="1">
          <mxGeometry x="-740" y="350" width="120" height="60" as="geometry" />
        </mxCell>
        <mxCell id="NIufxUbHIXF32C0Od_Hi-2" value="ACTOR" style="rounded=0;whiteSpace=wrap;html=1;" parent="1" vertex="1">
          <mxGeometry x="-740" y="690" width="120" height="60" as="geometry" />
        </mxCell>
        <mxCell id="NIufxUbHIXF32C0Od_Hi-4" value="DIRECTOR" style="rounded=0;whiteSpace=wrap;html=1;" parent="1" vertex="1">
          <mxGeometry x="-220" y="350" width="120" height="60" as="geometry" />
        </mxCell>
        <mxCell id="NIufxUbHIXF32C0Od_Hi-11" value="" style="ellipse;whiteSpace=wrap;html=1;aspect=fixed;fillColor=#000000;" parent="1" vertex="1">
          <mxGeometry x="-750" y="810" width="20" height="20" as="geometry" />
        </mxCell>
        <mxCell id="NIufxUbHIXF32C0Od_Hi-12" value="" style="ellipse;whiteSpace=wrap;html=1;aspect=fixed;" parent="1" vertex="1">
          <mxGeometry x="-550" y="680" width="20" height="20" as="geometry" />
        </mxCell>
        <mxCell id="NIufxUbHIXF32C0Od_Hi-14" value="" style="endArrow=none;html=1;rounded=0;fontSize=12;startSize=8;endSize=8;curved=1;entryX=0;entryY=1;entryDx=0;entryDy=0;exitX=0.5;exitY=0;exitDx=0;exitDy=0;" parent="1" source="NIufxUbHIXF32C0Od_Hi-11" target="NIufxUbHIXF32C0Od_Hi-2" edge="1">
          <mxGeometry width="50" height="50" relative="1" as="geometry">
            <mxPoint x="-620" y="640" as="sourcePoint" />
            <mxPoint x="-570" y="590" as="targetPoint" />
          </mxGeometry>
        </mxCell>
        <mxCell id="twvNicbN_SNmIhZQjOS2-8" style="edgeStyle=orthogonalEdgeStyle;rounded=0;orthogonalLoop=1;jettySize=auto;html=1;exitX=1;exitY=0;exitDx=0;exitDy=0;" parent="1" source="NIufxUbHIXF32C0Od_Hi-16" edge="1">
          <mxGeometry relative="1" as="geometry">
            <mxPoint x="-740" y="610" as="targetPoint" />
          </mxGeometry>
        </mxCell>
        <mxCell id="NIufxUbHIXF32C0Od_Hi-16" value="" style="ellipse;whiteSpace=wrap;html=1;aspect=fixed;" parent="1" vertex="1">
          <mxGeometry x="-750" y="600" width="20" height="20" as="geometry" />
        </mxCell>
        <mxCell id="NIufxUbHIXF32C0Od_Hi-17" value="" style="endArrow=none;html=1;rounded=0;fontSize=12;startSize=8;endSize=8;curved=1;entryX=0.5;entryY=0;entryDx=0;entryDy=0;exitX=0;exitY=1;exitDx=0;exitDy=0;" parent="1" source="NIufxUbHIXF32C0Od_Hi-104" target="NIufxUbHIXF32C0Od_Hi-16" edge="1">
          <mxGeometry width="50" height="50" relative="1" as="geometry">
            <mxPoint x="-760" y="610" as="sourcePoint" />
            <mxPoint x="-740" y="610" as="targetPoint" />
          </mxGeometry>
        </mxCell>
        <mxCell id="NIufxUbHIXF32C0Od_Hi-18" value="" style="ellipse;whiteSpace=wrap;html=1;aspect=fixed;" parent="1" vertex="1">
          <mxGeometry x="-580" y="340" width="20" height="20" as="geometry" />
        </mxCell>
        <mxCell id="NIufxUbHIXF32C0Od_Hi-19" value="" style="ellipse;whiteSpace=wrap;html=1;aspect=fixed;" parent="1" vertex="1">
          <mxGeometry x="-720" y="440" width="20" height="20" as="geometry" />
        </mxCell>
        <mxCell id="NIufxUbHIXF32C0Od_Hi-20" value="" style="ellipse;whiteSpace=wrap;html=1;aspect=fixed;" parent="1" vertex="1">
          <mxGeometry x="-800" y="370" width="20" height="20" as="geometry" />
        </mxCell>
        <mxCell id="NIufxUbHIXF32C0Od_Hi-21" value="" style="ellipse;whiteSpace=wrap;html=1;aspect=fixed;" parent="1" vertex="1">
          <mxGeometry x="-720" y="270" width="20" height="20" as="geometry" />
        </mxCell>
        <mxCell id="NIufxUbHIXF32C0Od_Hi-22" value="" style="ellipse;whiteSpace=wrap;html=1;aspect=fixed;fillColor=#000000;" parent="1" vertex="1">
          <mxGeometry x="-750" y="270" width="20" height="20" as="geometry" />
        </mxCell>
        <mxCell id="NIufxUbHIXF32C0Od_Hi-27" value="" style="endArrow=none;html=1;rounded=0;fontSize=12;startSize=8;endSize=8;curved=1;exitX=0.25;exitY=1;exitDx=0;exitDy=0;" parent="1" source="NIufxUbHIXF32C0Od_Hi-1" edge="1">
          <mxGeometry width="50" height="50" relative="1" as="geometry">
            <mxPoint x="-590" y="320" as="sourcePoint" />
            <mxPoint x="-710" y="440" as="targetPoint" />
          </mxGeometry>
        </mxCell>
        <mxCell id="NIufxUbHIXF32C0Od_Hi-28" value="" style="endArrow=none;html=1;rounded=0;fontSize=12;startSize=8;endSize=8;curved=1;entryX=1;entryY=0;entryDx=0;entryDy=0;exitX=0;exitY=0.5;exitDx=0;exitDy=0;" parent="1" source="NIufxUbHIXF32C0Od_Hi-18" target="NIufxUbHIXF32C0Od_Hi-1" edge="1">
          <mxGeometry width="50" height="50" relative="1" as="geometry">
            <mxPoint x="-620" y="420" as="sourcePoint" />
            <mxPoint x="-570" y="370" as="targetPoint" />
          </mxGeometry>
        </mxCell>
        <mxCell id="NIufxUbHIXF32C0Od_Hi-29" value="" style="endArrow=none;html=1;rounded=0;fontSize=12;startSize=8;endSize=8;curved=1;entryX=1;entryY=0.5;entryDx=0;entryDy=0;exitX=0;exitY=0.5;exitDx=0;exitDy=0;" parent="1" source="NIufxUbHIXF32C0Od_Hi-1" target="NIufxUbHIXF32C0Od_Hi-20" edge="1">
          <mxGeometry width="50" height="50" relative="1" as="geometry">
            <mxPoint x="-620" y="420" as="sourcePoint" />
            <mxPoint x="-570" y="370" as="targetPoint" />
          </mxGeometry>
        </mxCell>
        <mxCell id="NIufxUbHIXF32C0Od_Hi-31" value="" style="endArrow=none;html=1;rounded=0;fontSize=12;startSize=8;endSize=8;curved=1;entryX=0.5;entryY=1;entryDx=0;entryDy=0;exitX=0;exitY=0;exitDx=0;exitDy=0;" parent="1" source="NIufxUbHIXF32C0Od_Hi-1" target="NIufxUbHIXF32C0Od_Hi-22" edge="1">
          <mxGeometry width="50" height="50" relative="1" as="geometry">
            <mxPoint x="-620" y="420" as="sourcePoint" />
            <mxPoint x="-570" y="370" as="targetPoint" />
          </mxGeometry>
        </mxCell>
        <mxCell id="NIufxUbHIXF32C0Od_Hi-32" value="" style="ellipse;whiteSpace=wrap;html=1;aspect=fixed;" parent="1" vertex="1">
          <mxGeometry x="-800" y="340" width="20" height="20" as="geometry" />
        </mxCell>
        <mxCell id="NIufxUbHIXF32C0Od_Hi-33" value="" style="ellipse;whiteSpace=wrap;html=1;aspect=fixed;" parent="1" vertex="1">
          <mxGeometry x="-800" y="400" width="20" height="20" as="geometry" />
        </mxCell>
        <mxCell id="NIufxUbHIXF32C0Od_Hi-34" value="" style="endArrow=none;html=1;rounded=0;fontSize=12;startSize=8;endSize=8;curved=1;entryX=1;entryY=0.5;entryDx=0;entryDy=0;exitX=0;exitY=0;exitDx=0;exitDy=0;" parent="1" source="NIufxUbHIXF32C0Od_Hi-1" target="NIufxUbHIXF32C0Od_Hi-32" edge="1">
          <mxGeometry width="50" height="50" relative="1" as="geometry">
            <mxPoint x="-620" y="420" as="sourcePoint" />
            <mxPoint x="-570" y="370" as="targetPoint" />
          </mxGeometry>
        </mxCell>
        <mxCell id="NIufxUbHIXF32C0Od_Hi-37" style="edgeStyle=none;curved=1;rounded=0;orthogonalLoop=1;jettySize=auto;html=1;exitX=0.5;exitY=0;exitDx=0;exitDy=0;fontSize=12;startSize=8;endSize=8;" parent="1" source="NIufxUbHIXF32C0Od_Hi-19" target="NIufxUbHIXF32C0Od_Hi-19" edge="1">
          <mxGeometry relative="1" as="geometry" />
        </mxCell>
        <mxCell id="NIufxUbHIXF32C0Od_Hi-38" value="" style="ellipse;whiteSpace=wrap;html=1;aspect=fixed;fillColor=#000000;" parent="1" vertex="1">
          <mxGeometry x="-230" y="270" width="20" height="20" as="geometry" />
        </mxCell>
        <mxCell id="NIufxUbHIXF32C0Od_Hi-39" value="" style="ellipse;whiteSpace=wrap;html=1;aspect=fixed;" parent="1" vertex="1">
          <mxGeometry x="-230" y="470" width="20" height="20" as="geometry" />
        </mxCell>
        <mxCell id="NIufxUbHIXF32C0Od_Hi-43" value="" style="endArrow=none;html=1;rounded=0;fontSize=12;startSize=8;endSize=8;curved=1;entryX=0.5;entryY=1;entryDx=0;entryDy=0;exitX=0;exitY=0;exitDx=0;exitDy=0;" parent="1" source="NIufxUbHIXF32C0Od_Hi-4" target="NIufxUbHIXF32C0Od_Hi-38" edge="1">
          <mxGeometry width="50" height="50" relative="1" as="geometry">
            <mxPoint x="-420" y="420" as="sourcePoint" />
            <mxPoint x="-370" y="370" as="targetPoint" />
          </mxGeometry>
        </mxCell>
        <mxCell id="NIufxUbHIXF32C0Od_Hi-45" value="(1,n)" style="text;html=1;align=center;verticalAlign=middle;whiteSpace=wrap;rounded=0;fontSize=16;" parent="1" vertex="1">
          <mxGeometry x="-630" y="350" width="60" height="30" as="geometry" />
        </mxCell>
        <mxCell id="NIufxUbHIXF32C0Od_Hi-46" value="(1,1)" style="text;html=1;align=center;verticalAlign=middle;whiteSpace=wrap;rounded=0;fontSize=16;" parent="1" vertex="1">
          <mxGeometry x="-280" y="350" width="60" height="30" as="geometry" />
        </mxCell>
        <mxCell id="NIufxUbHIXF32C0Od_Hi-48" value="(1,n)" style="text;html=1;align=center;verticalAlign=middle;whiteSpace=wrap;rounded=0;fontSize=16;" parent="1" vertex="1">
          <mxGeometry x="-680" y="490" width="60" height="30" as="geometry" />
        </mxCell>
        <mxCell id="NIufxUbHIXF32C0Od_Hi-49" value="(1,n)" style="text;html=1;align=center;verticalAlign=middle;whiteSpace=wrap;rounded=0;fontSize=16;" parent="1" vertex="1">
          <mxGeometry x="-680" y="580" width="60" height="30" as="geometry" />
        </mxCell>
        <mxCell id="NIufxUbHIXF32C0Od_Hi-52" value="" style="ellipse;whiteSpace=wrap;html=1;aspect=fixed;fillColor=#ffffff;" parent="1" vertex="1">
          <mxGeometry x="-710" y="810" width="20" height="20" as="geometry" />
        </mxCell>
        <mxCell id="NIufxUbHIXF32C0Od_Hi-53" value="" style="endArrow=none;html=1;rounded=0;fontSize=12;startSize=8;endSize=8;curved=1;exitX=0.5;exitY=0;exitDx=0;exitDy=0;entryX=0.334;entryY=1.029;entryDx=0;entryDy=0;entryPerimeter=0;" parent="1" source="NIufxUbHIXF32C0Od_Hi-52" target="NIufxUbHIXF32C0Od_Hi-2" edge="1">
          <mxGeometry width="50" height="50" relative="1" as="geometry">
            <mxPoint x="-560" y="640" as="sourcePoint" />
            <mxPoint x="-690" y="760" as="targetPoint" />
          </mxGeometry>
        </mxCell>
        <mxCell id="NIufxUbHIXF32C0Od_Hi-54" value="NacionActor1" style="text;html=1;align=center;verticalAlign=middle;whiteSpace=wrap;rounded=0;rotation=0;" parent="1" vertex="1">
          <mxGeometry x="-520" y="675" width="80" height="30" as="geometry" />
        </mxCell>
        <mxCell id="NIufxUbHIXF32C0Od_Hi-55" value="NombreActor" style="text;html=1;align=center;verticalAlign=middle;whiteSpace=wrap;rounded=0;rotation=90;" parent="1" vertex="1">
          <mxGeometry x="-750" y="870" width="100" height="30" as="geometry" />
        </mxCell>
        <mxCell id="NIufxUbHIXF32C0Od_Hi-56" value="IdActor" style="text;html=1;align=center;verticalAlign=middle;whiteSpace=wrap;rounded=0;rotation=90;" parent="1" vertex="1">
          <mxGeometry x="-770" y="850" width="60" height="30" as="geometry" />
        </mxCell>
        <mxCell id="NIufxUbHIXF32C0Od_Hi-57" value="Personaje" style="text;html=1;align=center;verticalAlign=middle;whiteSpace=wrap;rounded=0;rotation=90;" parent="1" vertex="1">
          <mxGeometry x="-767.5" y="645" width="55" height="15" as="geometry" />
        </mxCell>
        <mxCell id="NIufxUbHIXF32C0Od_Hi-58" value="" style="ellipse;whiteSpace=wrap;html=1;aspect=fixed;" parent="1" vertex="1">
          <mxGeometry x="-690" y="270" width="20" height="20" as="geometry" />
        </mxCell>
        <mxCell id="NIufxUbHIXF32C0Od_Hi-60" value="Color" style="text;html=1;align=center;verticalAlign=middle;whiteSpace=wrap;rounded=0;rotation=0;" parent="1" vertex="1">
          <mxGeometry x="-860" y="335" width="60" height="30" as="geometry" />
        </mxCell>
        <mxCell id="NIufxUbHIXF32C0Od_Hi-61" value="Resumen" style="text;html=1;align=center;verticalAlign=middle;whiteSpace=wrap;rounded=0;rotation=0;" parent="1" vertex="1">
          <mxGeometry x="-860" y="365" width="60" height="30" as="geometry" />
        </mxCell>
        <mxCell id="NIufxUbHIXF32C0Od_Hi-62" value="Observ" style="text;html=1;align=center;verticalAlign=middle;whiteSpace=wrap;rounded=0;rotation=0;" parent="1" vertex="1">
          <mxGeometry x="-860" y="395" width="60" height="30" as="geometry" />
        </mxCell>
        <mxCell id="NIufxUbHIXF32C0Od_Hi-63" value="IdPelicula" style="text;html=1;align=center;verticalAlign=middle;whiteSpace=wrap;rounded=0;rotation=-90;" parent="1" vertex="1">
          <mxGeometry x="-770" y="220" width="60" height="30" as="geometry" />
        </mxCell>
        <mxCell id="NIufxUbHIXF32C0Od_Hi-64" value="Idioma1" style="text;html=1;align=center;verticalAlign=middle;whiteSpace=wrap;rounded=0;rotation=-90;" parent="1" vertex="1">
          <mxGeometry x="-740" y="220" width="60" height="30" as="geometry" />
        </mxCell>
        <mxCell id="NIufxUbHIXF32C0Od_Hi-65" value="NacionPelicula1" style="text;html=1;align=center;verticalAlign=middle;whiteSpace=wrap;rounded=0;rotation=-90;" parent="1" vertex="1">
          <mxGeometry x="-700" y="200" width="100" height="30" as="geometry" />
        </mxCell>
        <mxCell id="NIufxUbHIXF32C0Od_Hi-66" value="Ano" style="text;html=1;align=center;verticalAlign=middle;whiteSpace=wrap;rounded=0;rotation=90;" parent="1" vertex="1">
          <mxGeometry x="-770" y="460" width="60" height="30" as="geometry" />
        </mxCell>
        <mxCell id="NIufxUbHIXF32C0Od_Hi-67" value="Titulo" style="text;html=1;align=center;verticalAlign=middle;whiteSpace=wrap;rounded=0;rotation=90;" parent="1" vertex="1">
          <mxGeometry x="-740" y="465" width="60" height="30" as="geometry" />
        </mxCell>
        <mxCell id="NIufxUbHIXF32C0Od_Hi-69" value="" style="ellipse;whiteSpace=wrap;html=1;aspect=fixed;" parent="1" vertex="1">
          <mxGeometry x="-190" y="270" width="20" height="20" as="geometry" />
        </mxCell>
        <mxCell id="NIufxUbHIXF32C0Od_Hi-70" value="" style="ellipse;whiteSpace=wrap;html=1;aspect=fixed;" parent="1" vertex="1">
          <mxGeometry x="-150" y="270" width="20" height="20" as="geometry" />
        </mxCell>
        <mxCell id="NIufxUbHIXF32C0Od_Hi-71" value="" style="endArrow=none;html=1;rounded=0;entryX=0.5;entryY=1;entryDx=0;entryDy=0;exitX=0.333;exitY=0;exitDx=0;exitDy=0;exitPerimeter=0;" parent="1" source="NIufxUbHIXF32C0Od_Hi-4" target="NIufxUbHIXF32C0Od_Hi-69" edge="1">
          <mxGeometry width="50" height="50" relative="1" as="geometry">
            <mxPoint x="-190" y="330" as="sourcePoint" />
            <mxPoint x="-150" y="420" as="targetPoint" />
          </mxGeometry>
        </mxCell>
        <mxCell id="NIufxUbHIXF32C0Od_Hi-72" value="" style="endArrow=none;html=1;rounded=0;entryX=0.5;entryY=1;entryDx=0;entryDy=0;exitX=0.672;exitY=-0.016;exitDx=0;exitDy=0;exitPerimeter=0;" parent="1" source="NIufxUbHIXF32C0Od_Hi-4" target="NIufxUbHIXF32C0Od_Hi-70" edge="1">
          <mxGeometry width="50" height="50" relative="1" as="geometry">
            <mxPoint x="-140" y="310" as="sourcePoint" />
            <mxPoint x="-150" y="420" as="targetPoint" />
          </mxGeometry>
        </mxCell>
        <mxCell id="NIufxUbHIXF32C0Od_Hi-77" value="IdDirector" style="text;html=1;align=center;verticalAlign=middle;whiteSpace=wrap;rounded=0;rotation=-90;" parent="1" vertex="1">
          <mxGeometry x="-250" y="210" width="60" height="30" as="geometry" />
        </mxCell>
        <mxCell id="NIufxUbHIXF32C0Od_Hi-78" value="NombreDirector" style="text;html=1;align=center;verticalAlign=middle;whiteSpace=wrap;rounded=0;rotation=-90;" parent="1" vertex="1">
          <mxGeometry x="-210" y="200" width="60" height="30" as="geometry" />
        </mxCell>
        <mxCell id="NIufxUbHIXF32C0Od_Hi-79" value="FNacDirector" style="text;html=1;align=center;verticalAlign=middle;whiteSpace=wrap;rounded=0;rotation=-90;" parent="1" vertex="1">
          <mxGeometry x="-185" y="200" width="90" height="30" as="geometry" />
        </mxCell>
        <mxCell id="NIufxUbHIXF32C0Od_Hi-85" value="" style="ellipse;whiteSpace=wrap;html=1;aspect=fixed;fillColor=#ffffff;" parent="1" vertex="1">
          <mxGeometry x="-670" y="810" width="20" height="20" as="geometry" />
        </mxCell>
        <mxCell id="NIufxUbHIXF32C0Od_Hi-86" value="FNacActor" style="text;html=1;align=center;verticalAlign=middle;whiteSpace=wrap;rounded=0;rotation=90;" parent="1" vertex="1">
          <mxGeometry x="-710" y="870" width="100" height="30" as="geometry" />
        </mxCell>
        <mxCell id="NIufxUbHIXF32C0Od_Hi-87" value="" style="endArrow=none;html=1;rounded=0;fontSize=12;startSize=8;endSize=8;curved=1;exitX=0.5;exitY=0;exitDx=0;exitDy=0;entryX=0.668;entryY=1.01;entryDx=0;entryDy=0;entryPerimeter=0;" parent="1" source="NIufxUbHIXF32C0Od_Hi-85" target="NIufxUbHIXF32C0Od_Hi-2" edge="1">
          <mxGeometry width="50" height="50" relative="1" as="geometry">
            <mxPoint x="-690" y="830" as="sourcePoint" />
            <mxPoint x="-660" y="770" as="targetPoint" />
          </mxGeometry>
        </mxCell>
        <mxCell id="NIufxUbHIXF32C0Od_Hi-88" value="" style="endArrow=classic;html=1;rounded=0;entryX=0;entryY=0.5;entryDx=0;entryDy=0;exitX=1;exitY=0.5;exitDx=0;exitDy=0;" parent="1" source="NIufxUbHIXF32C0Od_Hi-1" target="NIufxUbHIXF32C0Od_Hi-4" edge="1">
          <mxGeometry width="50" height="50" relative="1" as="geometry">
            <mxPoint x="-380" y="380" as="sourcePoint" />
            <mxPoint x="-410" y="450" as="targetPoint" />
          </mxGeometry>
        </mxCell>
        <mxCell id="NIufxUbHIXF32C0Od_Hi-94" value="" style="endArrow=none;html=1;rounded=0;fontSize=12;startSize=8;endSize=8;curved=1;entryX=0;entryY=1;entryDx=0;entryDy=0;exitX=0.5;exitY=0;exitDx=0;exitDy=0;" parent="1" source="NIufxUbHIXF32C0Od_Hi-96" target="NIufxUbHIXF32C0Od_Hi-1" edge="1">
          <mxGeometry width="50" height="50" relative="1" as="geometry">
            <mxPoint x="-740" y="450" as="sourcePoint" />
            <mxPoint x="-730" y="420" as="targetPoint" />
          </mxGeometry>
        </mxCell>
        <mxCell id="NIufxUbHIXF32C0Od_Hi-96" value="" style="ellipse;whiteSpace=wrap;html=1;aspect=fixed;" parent="1" vertex="1">
          <mxGeometry x="-750" y="440" width="20" height="20" as="geometry" />
        </mxCell>
        <mxCell id="NIufxUbHIXF32C0Od_Hi-99" value="Restriccion" style="text;html=1;align=center;verticalAlign=middle;whiteSpace=wrap;rounded=0;rotation=0;" parent="1" vertex="1">
          <mxGeometry x="-550" y="335" width="60" height="30" as="geometry" />
        </mxCell>
        <mxCell id="NIufxUbHIXF32C0Od_Hi-102" value="(1,1)" style="text;html=1;align=center;verticalAlign=middle;whiteSpace=wrap;rounded=0;fontSize=16;" parent="1" vertex="1">
          <mxGeometry x="-680" y="410" width="60" height="30" as="geometry" />
        </mxCell>
        <mxCell id="NIufxUbHIXF32C0Od_Hi-103" value="(1,1)" style="text;html=1;align=center;verticalAlign=middle;whiteSpace=wrap;rounded=0;fontSize=16;" parent="1" vertex="1">
          <mxGeometry x="-680" y="660" width="60" height="30" as="geometry" />
        </mxCell>
        <mxCell id="NIufxUbHIXF32C0Od_Hi-104" value="" style="rounded=0;whiteSpace=wrap;html=1;" parent="1" vertex="1">
          <mxGeometry x="-740" y="520" width="120" height="60" as="geometry" />
        </mxCell>
        <mxCell id="NIufxUbHIXF32C0Od_Hi-105" value="ACTOR EN PELICULA" style="rounded=0;whiteSpace=wrap;html=1;" parent="1" vertex="1">
          <mxGeometry x="-730" y="530" width="100" height="40" as="geometry" />
        </mxCell>
        <mxCell id="NIufxUbHIXF32C0Od_Hi-107" value="" style="ellipse;whiteSpace=wrap;html=1;aspect=fixed;fillColor=#ffffff;" parent="1" vertex="1">
          <mxGeometry x="-800" y="510" width="20" height="20" as="geometry" />
        </mxCell>
        <mxCell id="NIufxUbHIXF32C0Od_Hi-108" value="" style="ellipse;whiteSpace=wrap;html=1;aspect=fixed;fillColor=#ffffff;" parent="1" vertex="1">
          <mxGeometry x="-800" y="570" width="20" height="20" as="geometry" />
        </mxCell>
        <mxCell id="NIufxUbHIXF32C0Od_Hi-109" value="" style="endArrow=none;html=1;rounded=0;entryX=1;entryY=0.5;entryDx=0;entryDy=0;exitX=0;exitY=0;exitDx=0;exitDy=0;" parent="1" source="NIufxUbHIXF32C0Od_Hi-104" target="NIufxUbHIXF32C0Od_Hi-107" edge="1">
          <mxGeometry width="50" height="50" relative="1" as="geometry">
            <mxPoint x="-510" y="470" as="sourcePoint" />
            <mxPoint x="-460" y="420" as="targetPoint" />
          </mxGeometry>
        </mxCell>
        <mxCell id="NIufxUbHIXF32C0Od_Hi-110" value="" style="endArrow=none;html=1;rounded=0;entryX=1;entryY=0.5;entryDx=0;entryDy=0;exitX=0;exitY=1;exitDx=0;exitDy=0;" parent="1" source="NIufxUbHIXF32C0Od_Hi-104" target="NIufxUbHIXF32C0Od_Hi-108" edge="1">
          <mxGeometry width="50" height="50" relative="1" as="geometry">
            <mxPoint x="-760" y="548" as="sourcePoint" />
            <mxPoint x="-770" y="530" as="targetPoint" />
          </mxGeometry>
        </mxCell>
        <mxCell id="NIufxUbHIXF32C0Od_Hi-111" value="IdPeliculaFK" style="text;html=1;align=center;verticalAlign=middle;whiteSpace=wrap;rounded=0;rotation=0;" parent="1" vertex="1">
          <mxGeometry x="-870" y="505" width="60" height="30" as="geometry" />
        </mxCell>
        <mxCell id="NIufxUbHIXF32C0Od_Hi-112" value="IdActorFK" style="text;html=1;align=center;verticalAlign=middle;whiteSpace=wrap;rounded=0;rotation=0;" parent="1" vertex="1">
          <mxGeometry x="-860" y="565" width="60" height="30" as="geometry" />
        </mxCell>
        <mxCell id="NIufxUbHIXF32C0Od_Hi-114" value="" style="ellipse;whiteSpace=wrap;html=1;aspect=fixed;" parent="1" vertex="1">
          <mxGeometry x="-580" y="400" width="20" height="20" as="geometry" />
        </mxCell>
        <mxCell id="NIufxUbHIXF32C0Od_Hi-116" value="IdDirectorFK" style="text;html=1;align=center;verticalAlign=middle;whiteSpace=wrap;rounded=0;rotation=0;" parent="1" vertex="1">
          <mxGeometry x="-550" y="395" width="60" height="30" as="geometry" />
        </mxCell>
        <mxCell id="NIufxUbHIXF32C0Od_Hi-117" value="" style="endArrow=none;html=1;rounded=0;entryX=1;entryY=0;entryDx=0;entryDy=0;exitX=0;exitY=0.5;exitDx=0;exitDy=0;" parent="1" source="NIufxUbHIXF32C0Od_Hi-114" target="NIufxUbHIXF32C0Od_Hi-102" edge="1">
          <mxGeometry width="50" height="50" relative="1" as="geometry">
            <mxPoint x="-510" y="470" as="sourcePoint" />
            <mxPoint x="-460" y="420" as="targetPoint" />
          </mxGeometry>
        </mxCell>
        <mxCell id="NIufxUbHIXF32C0Od_Hi-118" value="" style="endArrow=none;dashed=1;html=1;rounded=0;exitX=1;exitY=0.5;exitDx=0;exitDy=0;entryX=0;entryY=1;entryDx=0;entryDy=0;" parent="1" source="NIufxUbHIXF32C0Od_Hi-33" target="NIufxUbHIXF32C0Od_Hi-1" edge="1">
          <mxGeometry width="50" height="50" relative="1" as="geometry">
            <mxPoint x="-510" y="470" as="sourcePoint" />
            <mxPoint x="-460" y="420" as="targetPoint" />
          </mxGeometry>
        </mxCell>
        <mxCell id="twvNicbN_SNmIhZQjOS2-4" value="" style="endArrow=classic;html=1;rounded=0;entryX=0.5;entryY=1;entryDx=0;entryDy=0;exitX=0;exitY=1;exitDx=0;exitDy=0;" parent="1" source="NIufxUbHIXF32C0Od_Hi-48" target="NIufxUbHIXF32C0Od_Hi-1" edge="1">
          <mxGeometry width="50" height="50" relative="1" as="geometry">
            <mxPoint x="-430" y="490" as="sourcePoint" />
            <mxPoint x="-380" y="440" as="targetPoint" />
          </mxGeometry>
        </mxCell>
        <mxCell id="twvNicbN_SNmIhZQjOS2-5" value="" style="endArrow=classic;html=1;rounded=0;entryX=0;entryY=1;entryDx=0;entryDy=0;exitX=0;exitY=0;exitDx=0;exitDy=0;" parent="1" source="NIufxUbHIXF32C0Od_Hi-49" target="NIufxUbHIXF32C0Od_Hi-103" edge="1">
          <mxGeometry width="50" height="50" relative="1" as="geometry">
            <mxPoint x="-430" y="490" as="sourcePoint" />
            <mxPoint x="-380" y="440" as="targetPoint" />
          </mxGeometry>
        </mxCell>
        <mxCell id="twvNicbN_SNmIhZQjOS2-14" value="" style="ellipse;whiteSpace=wrap;html=1;aspect=fixed;fillColor=#000000;" parent="1" vertex="1">
          <mxGeometry x="-800" y="540" width="20" height="20" as="geometry" />
        </mxCell>
        <mxCell id="twvNicbN_SNmIhZQjOS2-16" value="" style="endArrow=none;html=1;rounded=0;entryX=1;entryY=0.5;entryDx=0;entryDy=0;exitX=0;exitY=0.5;exitDx=0;exitDy=0;" parent="1" source="NIufxUbHIXF32C0Od_Hi-104" target="twvNicbN_SNmIhZQjOS2-14" edge="1">
          <mxGeometry width="50" height="50" relative="1" as="geometry">
            <mxPoint x="-730" y="530" as="sourcePoint" />
            <mxPoint x="-770" y="530" as="targetPoint" />
          </mxGeometry>
        </mxCell>
        <mxCell id="twvNicbN_SNmIhZQjOS2-17" value="IdActorPelicula" style="text;html=1;align=center;verticalAlign=middle;whiteSpace=wrap;rounded=0;rotation=0;" parent="1" vertex="1">
          <mxGeometry x="-880" y="533" width="60" height="35" as="geometry" />
        </mxCell>
        <mxCell id="twvNicbN_SNmIhZQjOS2-19" value="" style="ellipse;whiteSpace=wrap;html=1;aspect=fixed;" parent="1" vertex="1">
          <mxGeometry x="-190" y="470" width="20" height="20" as="geometry" />
        </mxCell>
        <mxCell id="twvNicbN_SNmIhZQjOS2-20" value="" style="ellipse;whiteSpace=wrap;html=1;aspect=fixed;" parent="1" vertex="1">
          <mxGeometry x="-110" y="470" width="20" height="20" as="geometry" />
        </mxCell>
        <mxCell id="twvNicbN_SNmIhZQjOS2-22" value="..." style="text;html=1;align=center;verticalAlign=middle;whiteSpace=wrap;rounded=0;" parent="1" vertex="1">
          <mxGeometry x="-170" y="465" width="60" height="30" as="geometry" />
        </mxCell>
        <mxCell id="twvNicbN_SNmIhZQjOS2-23" value="" style="endArrow=none;html=1;rounded=0;entryX=0;entryY=1;entryDx=0;entryDy=0;exitX=0.5;exitY=0;exitDx=0;exitDy=0;" parent="1" source="NIufxUbHIXF32C0Od_Hi-39" target="NIufxUbHIXF32C0Od_Hi-4" edge="1">
          <mxGeometry width="50" height="50" relative="1" as="geometry">
            <mxPoint x="-240" y="380" as="sourcePoint" />
            <mxPoint x="-190" y="330" as="targetPoint" />
          </mxGeometry>
        </mxCell>
        <mxCell id="twvNicbN_SNmIhZQjOS2-24" value="" style="endArrow=none;dashed=1;html=1;rounded=0;entryX=0.5;entryY=0;entryDx=0;entryDy=0;exitX=0.337;exitY=1.057;exitDx=0;exitDy=0;exitPerimeter=0;" parent="1" source="NIufxUbHIXF32C0Od_Hi-4" target="twvNicbN_SNmIhZQjOS2-19" edge="1">
          <mxGeometry width="50" height="50" relative="1" as="geometry">
            <mxPoint x="-180" y="430" as="sourcePoint" />
            <mxPoint x="-190" y="330" as="targetPoint" />
          </mxGeometry>
        </mxCell>
        <mxCell id="twvNicbN_SNmIhZQjOS2-26" value="" style="endArrow=none;dashed=1;html=1;rounded=0;entryX=0.5;entryY=0;entryDx=0;entryDy=0;exitX=0.337;exitY=1.057;exitDx=0;exitDy=0;exitPerimeter=0;" parent="1" edge="1">
          <mxGeometry width="50" height="50" relative="1" as="geometry">
            <mxPoint x="-100.29" y="413" as="sourcePoint" />
            <mxPoint x="-100.29" y="470" as="targetPoint" />
          </mxGeometry>
        </mxCell>
        <mxCell id="twvNicbN_SNmIhZQjOS2-27" value="NacionDirector1" style="text;html=1;align=center;verticalAlign=middle;whiteSpace=wrap;rounded=0;rotation=90;" parent="1" vertex="1">
          <mxGeometry x="-270" y="533" width="100" height="30" as="geometry" />
        </mxCell>
        <mxCell id="twvNicbN_SNmIhZQjOS2-28" value="NacionDirector2" style="text;html=1;align=center;verticalAlign=middle;whiteSpace=wrap;rounded=0;rotation=90;" parent="1" vertex="1">
          <mxGeometry x="-230" y="533" width="100" height="30" as="geometry" />
        </mxCell>
        <mxCell id="twvNicbN_SNmIhZQjOS2-29" value="NacionDirectorN" style="text;html=1;align=center;verticalAlign=middle;whiteSpace=wrap;rounded=0;rotation=90;" parent="1" vertex="1">
          <mxGeometry x="-150" y="535.5" width="100" height="30" as="geometry" />
        </mxCell>
        <mxCell id="twvNicbN_SNmIhZQjOS2-30" value="" style="endArrow=none;dashed=1;html=1;rounded=0;exitX=1;exitY=1;exitDx=0;exitDy=0;entryX=0;entryY=0.5;entryDx=0;entryDy=0;" parent="1" source="NIufxUbHIXF32C0Od_Hi-2" target="twvNicbN_SNmIhZQjOS2-31" edge="1">
          <mxGeometry width="50" height="50" relative="1" as="geometry">
            <mxPoint x="-610" y="750" as="sourcePoint" />
            <mxPoint x="-560" y="750" as="targetPoint" />
          </mxGeometry>
        </mxCell>
        <mxCell id="twvNicbN_SNmIhZQjOS2-31" value="" style="ellipse;whiteSpace=wrap;html=1;aspect=fixed;" parent="1" vertex="1">
          <mxGeometry x="-550" y="740" width="20" height="20" as="geometry" />
        </mxCell>
        <mxCell id="twvNicbN_SNmIhZQjOS2-33" value="NacionActorN" style="text;html=1;align=center;verticalAlign=middle;whiteSpace=wrap;rounded=0;rotation=0;" parent="1" vertex="1">
          <mxGeometry x="-520" y="735" width="80" height="30" as="geometry" />
        </mxCell>
        <mxCell id="twvNicbN_SNmIhZQjOS2-34" value="" style="endArrow=none;html=1;rounded=0;entryX=0;entryY=0.5;entryDx=0;entryDy=0;exitX=1;exitY=0;exitDx=0;exitDy=0;" parent="1" source="NIufxUbHIXF32C0Od_Hi-2" target="NIufxUbHIXF32C0Od_Hi-12" edge="1">
          <mxGeometry width="50" height="50" relative="1" as="geometry">
            <mxPoint x="-590" y="780" as="sourcePoint" />
            <mxPoint x="-540" y="730" as="targetPoint" />
          </mxGeometry>
        </mxCell>
        <mxCell id="twvNicbN_SNmIhZQjOS2-35" value="" style="endArrow=none;html=1;rounded=0;exitX=0.25;exitY=0;exitDx=0;exitDy=0;entryX=0.5;entryY=1;entryDx=0;entryDy=0;" parent="1" source="NIufxUbHIXF32C0Od_Hi-1" target="NIufxUbHIXF32C0Od_Hi-21" edge="1">
          <mxGeometry width="50" height="50" relative="1" as="geometry">
            <mxPoint x="-770" y="310" as="sourcePoint" />
            <mxPoint x="-720" y="260" as="targetPoint" />
          </mxGeometry>
        </mxCell>
        <mxCell id="twvNicbN_SNmIhZQjOS2-36" value="" style="endArrow=none;dashed=1;html=1;rounded=0;entryX=0.5;entryY=1;entryDx=0;entryDy=0;exitX=0.5;exitY=0;exitDx=0;exitDy=0;" parent="1" source="NIufxUbHIXF32C0Od_Hi-1" target="NIufxUbHIXF32C0Od_Hi-58" edge="1">
          <mxGeometry width="50" height="50" relative="1" as="geometry">
            <mxPoint x="-770" y="310" as="sourcePoint" />
            <mxPoint x="-720" y="260" as="targetPoint" />
          </mxGeometry>
        </mxCell>
        <mxCell id="twvNicbN_SNmIhZQjOS2-37" value="" style="ellipse;whiteSpace=wrap;html=1;aspect=fixed;" parent="1" vertex="1">
          <mxGeometry x="-660" y="270" width="20" height="20" as="geometry" />
        </mxCell>
        <mxCell id="twvNicbN_SNmIhZQjOS2-38" value="" style="ellipse;whiteSpace=wrap;html=1;aspect=fixed;" parent="1" vertex="1">
          <mxGeometry x="-630" y="270" width="20" height="20" as="geometry" />
        </mxCell>
        <mxCell id="twvNicbN_SNmIhZQjOS2-39" value="" style="endArrow=none;html=1;rounded=0;exitX=0.75;exitY=0;exitDx=0;exitDy=0;entryX=0.5;entryY=1;entryDx=0;entryDy=0;" parent="1" source="NIufxUbHIXF32C0Od_Hi-1" target="twvNicbN_SNmIhZQjOS2-37" edge="1">
          <mxGeometry width="50" height="50" relative="1" as="geometry">
            <mxPoint x="-700" y="360" as="sourcePoint" />
            <mxPoint x="-700" y="300" as="targetPoint" />
          </mxGeometry>
        </mxCell>
        <mxCell id="twvNicbN_SNmIhZQjOS2-40" value="" style="endArrow=none;dashed=1;html=1;rounded=0;entryX=0.5;entryY=1;entryDx=0;entryDy=0;exitX=1;exitY=0;exitDx=0;exitDy=0;" parent="1" source="NIufxUbHIXF32C0Od_Hi-1" target="twvNicbN_SNmIhZQjOS2-38" edge="1">
          <mxGeometry width="50" height="50" relative="1" as="geometry">
            <mxPoint x="-670" y="360" as="sourcePoint" />
            <mxPoint x="-670" y="300" as="targetPoint" />
          </mxGeometry>
        </mxCell>
        <mxCell id="twvNicbN_SNmIhZQjOS2-41" value="IdiomaN" style="text;html=1;align=center;verticalAlign=middle;whiteSpace=wrap;rounded=0;rotation=-90;" parent="1" vertex="1">
          <mxGeometry x="-710" y="220" width="60" height="30" as="geometry" />
        </mxCell>
        <mxCell id="twvNicbN_SNmIhZQjOS2-42" value="NacionPeliculaN" style="text;html=1;align=center;verticalAlign=middle;whiteSpace=wrap;rounded=0;rotation=-90;" parent="1" vertex="1">
          <mxGeometry x="-670" y="200" width="100" height="30" as="geometry" />
        </mxCell>
      </root>
    </mxGraphModel>
  </diagram>
</mxfile>
